<?xml version="1.0" standalone="no"?>
<!DOCTYPE svg PUBLIC "-//W3C//DTD SVG 20010904//EN"
 "http://www.w3.org/TR/2001/REC-SVG-20010904/DTD/svg10.dtd">
<svg version="1.0" xmlns="http://www.w3.org/2000/svg"
 width="1131.000000pt" height="1218.000000pt" viewBox="0 0 1131.000000 1218.000000"
 preserveAspectRatio="xMidYMid meet">

<g transform="translate(0.000000,1218.000000) scale(0.100000,-0.100000)"
fill="#000000" stroke="none">
<path d="M2966 10358 c-11 -16 -16 -46 -16 -100 l0 -78 -80 0 c-73 0 -83 -3
-105 -25 -29 -28 -31 -42 -9 -73 14 -20 23 -22 105 -22 l89 0 0 -77 c0 -94 14
-127 55 -131 52 -4 60 8 65 110 l5 93 89 3 c50 2 96 8 103 14 7 6 13 25 13 44
0 50 -28 64 -127 64 l-83 0 0 88 c0 55 -4 92 -12 100 -21 21 -75 15 -92 -10z"/>
<path d="M7617 10352 c-13 -14 -17 -39 -17 -105 l0 -87 -88 0 c-98 0 -122 -12
-122 -62 0 -45 27 -58 123 -58 l87 0 0 -89 c0 -82 2 -91 22 -105 30 -21 54
-20 78 4 17 17 20 33 20 105 l0 85 83 0 c96 1 120 13 120 61 0 47 -23 59 -120
59 l-83 0 0 83 c0 70 -3 87 -20 105 -25 27 -61 28 -83 4z"/>
<path d="M8170 10010 c-18 -18 -20 -33 -20 -170 l0 -150 -154 0 c-149 0 -155
-1 -170 -22 -21 -30 -20 -61 2 -81 15 -13 46 -17 167 -19 l150 -3 3 -150 c3
-164 10 -185 63 -185 51 0 59 27 59 192 l0 148 148 0 c156 0 174 4 187 47 4
17 -1 29 -19 48 -25 24 -28 25 -171 25 l-145 0 0 148 c0 142 -1 149 -23 170
-29 27 -51 28 -77 2z"/>
<path d="M5175 9745 c-819 -83 -1583 -394 -2210 -898 -204 -164 -299 -260
-334 -339 -53 -116 -50 -243 9 -357 33 -65 113 -139 187 -173 60 -28 79 -32
158 -32 124 -1 196 27 293 115 20 19 64 57 97 84 33 28 62 53 65 56 16 17 226
173 290 214 351 225 707 376 1100 465 768 173 1598 66 2288 -296 316 -166 552
-339 848 -625 173 -167 204 -183 359 -183 90 0 106 3 160 29 71 34 160 121
193 189 53 105 53 245 1 353 -27 56 -279 314 -429 440 -648 542 -1405 861
-2265 953 -167 18 -651 21 -810 5z"/>
<path d="M5325 8629 c-586 -45 -1155 -253 -1620 -592 -103 -75 -284 -228 -332
-280 -23 -25 -54 -69 -70 -99 -25 -49 -28 -62 -28 -168 0 -107 2 -119 29 -175
38 -77 120 -158 193 -193 52 -24 69 -27 168 -27 100 0 115 3 165 27 30 15 98
64 150 109 140 120 231 188 360 265 618 372 1374 440 2065 186 135 -49 359
-163 473 -240 126 -85 214 -157 365 -301 134 -127 161 -146 242 -167 145 -39
298 6 402 119 106 115 131 294 62 442 -24 52 -210 247 -339 356 -408 345 -875
569 -1435 688 -239 50 -585 71 -850 50z"/>
<path d="M5415 7513 c-438 -29 -901 -216 -1230 -498 -149 -127 -185 -178 -206
-291 -51 -274 175 -511 451 -473 68 10 150 45 191 83 22 19 131 110 169 139
33 26 139 86 200 115 317 147 673 165 1012 52 188 -63 351 -165 523 -328 124
-118 167 -137 310 -137 99 0 116 3 168 27 73 35 155 116 193 193 27 55 29 69
29 170 0 104 -2 114 -33 177 -55 112 -310 340 -518 464 -190 113 -455 220
-639 258 -162 33 -183 36 -315 46 -130 10 -197 10 -305 3z"/>
<path d="M5510 6324 c-90 -24 -160 -65 -237 -140 -221 -216 -224 -562 -7 -780
99 -98 207 -149 344 -159 167 -13 310 38 427 153 302 295 180 797 -224 922
-78 24 -219 26 -303 4z"/>
<path d="M3199 6303 c-10 -12 -14 -56 -16 -167 l-1 -151 -156 -3 c-151 -2
-156 -3 -171 -26 -20 -31 -5 -73 30 -86 15 -6 87 -10 161 -10 l134 0 0 -134
c0 -148 7 -181 44 -198 20 -9 30 -8 50 6 25 16 26 18 28 169 l3 152 151 5
c164 5 184 12 184 59 0 53 -7 56 -177 61 l-158 5 -3 154 c-1 93 -7 160 -13
168 -16 18 -74 16 -90 -4z"/>
<path d="M8234 5922 c-24 -15 -34 -54 -34 -126 l0 -76 -85 0 c-72 0 -88 -3
-105 -20 -11 -11 -20 -29 -20 -40 0 -11 9 -29 20 -40 17 -17 33 -20 105 -20
l85 0 0 -85 c0 -93 16 -125 63 -125 44 0 57 28 57 123 l0 87 88 0 c98 0 122
12 122 63 0 42 -33 57 -127 57 l-83 0 0 88 c0 73 -3 92 -18 105 -19 18 -49 22
-68 9z"/>
<path d="M2776 3988 c-32 -106 -62 -204 -67 -218 -11 -31 -169 -560 -169 -566
0 -2 80 -3 177 -2 l178 3 19 78 19 77 137 0 137 0 18 -80 18 -80 179 0 179 0
-6 23 c-3 12 -19 65 -35 117 -145 476 -192 631 -221 727 l-34 113 -236 0 -236
0 -57 -192z m331 -216 c18 -81 35 -157 38 -169 5 -22 3 -23 -75 -23 -44 0 -80
4 -80 9 0 4 13 61 30 125 16 64 32 139 36 167 4 27 9 47 12 44 3 -3 21 -72 39
-153z"/>
<path d="M3680 3690 l0 -490 170 0 170 0 0 170 0 170 180 0 180 0 0 120 0 120
-177 2 -178 3 0 75 0 75 203 3 202 2 0 120 0 120 -375 0 -375 0 0 -490z"/>
<path d="M4520 3691 l0 -491 170 0 170 0 0 150 0 150 74 0 c63 0 77 -3 99 -24
26 -24 28 -32 47 -166 17 -122 -3 -110 191 -110 162 0 169 1 160 18 -6 10 -15
59 -21 108 -24 193 -48 248 -121 281 l-38 17 37 16 c46 21 88 63 113 112 14
28 19 58 19 126 0 75 -4 96 -26 140 -31 62 -82 105 -161 134 -54 21 -78 22
-385 26 l-328 3 0 -490z m536 226 c54 -47 30 -170 -37 -188 -13 -4 -54 -7 -91
-8 l-68 -1 0 110 0 110 84 0 c75 0 88 -3 112 -23z"/>
<path d="M5530 3690 l0 -490 170 0 170 0 0 490 0 490 -170 0 -170 0 0 -490z"/>
<path d="M6020 3690 l0 -490 155 0 155 0 0 268 0 267 124 -240 c69 -132 131
-251 138 -265 l14 -25 187 -3 187 -2 0 490 0 490 -161 0 -160 0 3 -260 c2
-143 0 -260 -3 -260 -4 0 -12 15 -20 33 -7 17 -67 134 -133 260 l-120 227
-183 0 -183 0 0 -490z"/>
<path d="M7120 3690 l0 -490 385 0 385 0 0 125 c0 69 -3 124 -7 124 -5 -1
-101 -1 -215 0 l-208 1 0 70 0 70 190 0 190 0 0 105 0 105 -187 2 -188 3 -3
68 -3 67 211 0 210 0 0 120 0 120 -380 0 -380 0 0 -490z"/>
<path d="M7942 4058 l3 -123 118 -3 117 -3 0 -364 0 -365 170 0 170 0 0 365 0
364 123 3 122 3 3 123 3 122 -416 0 -416 0 3 -122z"/>
<path d="M3610 2781 c0 -5 20 -96 44 -202 55 -240 133 -589 155 -689 l16 -75
213 -3 c166 -2 212 0 212 10 1 30 98 649 103 654 2 2 9 -31 15 -74 7 -42 28
-178 47 -302 19 -124 37 -240 40 -257 l6 -33 209 0 c116 0 210 2 210 4 0 2 14
64 30 137 17 74 65 285 106 469 41 184 77 343 80 353 5 16 -7 17 -165 17 -94
0 -171 -2 -171 -5 0 -2 -11 -71 -25 -152 -44 -269 -56 -337 -73 -448 l-18
-110 -48 295 c-26 162 -52 323 -58 358 l-11 62 -173 0 -172 0 -6 -27 c-10 -46
-95 -564 -102 -623 -5 -39 -9 -49 -14 -35 -4 11 -32 170 -61 353 l-54 332
-167 0 c-93 0 -168 -4 -168 -9z"/>
<path d="M5180 2300 l0 -490 170 0 170 0 0 490 0 490 -170 0 -170 0 0 -490z"/>
<path d="M6460 2300 l0 -490 170 0 170 0 0 170 0 170 178 2 177 3 3 118 3 117
-181 0 -180 0 0 80 0 80 200 0 200 0 0 120 0 120 -370 0 -370 0 0 -490z"/>
<path d="M7300 2300 l0 -490 170 0 170 0 0 490 0 490 -170 0 -170 0 0 -490z"/>
<path d="M5670 2180 l0 -110 320 0 320 0 0 110 0 110 -320 0 -320 0 0 -110z"/>
</g>
</svg>
